<svg width="17" height="16" viewBox="0 0 17 16" fill="none" xmlns="http://www.w3.org/2000/svg">
<path d="M15.6928 5.8043C16.2285 7.68111 16.0596 9.689 15.2179 11.45C14.3762 13.2109 12.9198 14.6034 11.1229 15.3653C9.32598 16.1272 7.31253 16.2059 5.46163 15.5866C3.61072 14.9673 2.05006 13.6928 1.07347 12.0029C0.0968848 10.313 -0.22825 8.32445 0.159283 6.41155C0.546816 4.49865 1.62028 2.79341 3.17757 1.61689C4.73486 0.440357 6.66853 -0.126287 8.61452 0.0236372C10.5605 0.173562 12.3846 1.02971 13.7433 2.4309L12.2491 3.87971C11.2439 2.84305 9.89439 2.20963 8.45465 2.09871C7.01492 1.98779 5.58429 2.40702 4.43214 3.27747C3.27998 4.14792 2.48578 5.40954 2.19907 6.82479C1.91235 8.24004 2.1529 9.71129 2.87543 10.9615C3.59795 12.2118 4.75261 13.1548 6.12199 13.6129C7.49138 14.0711 8.98102 14.0129 10.3105 13.4492C11.6399 12.8855 12.7174 11.8553 13.3401 10.5524C13.8318 9.52386 14.0131 8.3814 13.8727 7.2627C13.8352 6.96441 13.9561 7.555 13.8727 7.2627L15.6928 5.8043Z" fill="#3CB550"/>
<rect x="5.13184" y="6.15616" width="5" height="1.6" transform="rotate(45 5.13184 6.15616)" fill="#3CB550"/>
<rect x="5.13184" y="6.15616" width="5" height="1.6" transform="rotate(45 5.13184 6.15616)" fill="#3CB550"/>
<rect x="7.11621" y="10.3977" width="11.8833" height="1.6" transform="rotate(-45 7.11621 10.3977)" fill="#3CB550"/>
<rect x="7.11621" y="10.3977" width="11.8833" height="1.6" transform="rotate(-45 7.11621 10.3977)" fill="#3CB550"/>
</svg>
